<?xml version="1.0" standalone="no"?>
<!DOCTYPE svg PUBLIC "-//W3C//DTD SVG 20010904//EN"
 "http://www.w3.org/TR/2001/REC-SVG-20010904/DTD/svg10.dtd">
<svg version="1.0" xmlns="http://www.w3.org/2000/svg"
 width="641.000000pt" height="641.000000pt" viewBox="0 0 641.000000 641.000000"
 preserveAspectRatio="xMidYMid meet">
<metadata>
Created by potrace 1.14, written by Peter Selinger 2001-2017
</metadata>
<g transform="translate(0.000000,641.000000) scale(0.100000,-0.100000)"
fill="#000000" stroke="none">
<path d="M3018 6375 c-2 -1 -39 -6 -83 -9 -142 -12 -187 -18 -280 -36 -27 -5
-66 -12 -85 -16 -19 -3 -44 -8 -55 -10 -22 -4 -97 -23 -190 -49 -33 -9 -67
-18 -75 -20 -27 -7 -219 -77 -287 -107 -16 -6 -30 -12 -33 -13 -3 0 -27 -12
-55 -25 -27 -13 -52 -24 -55 -25 -13 -4 -86 -41 -90 -46 -3 -3 -23 -13 -45
-23 -22 -11 -42 -22 -45 -25 -3 -3 -18 -13 -35 -21 -16 -7 -43 -23 -60 -35
-16 -11 -42 -26 -57 -33 -16 -6 -28 -16 -28 -22 0 -6 -4 -8 -10 -5 -5 3 -10 1
-10 -4 0 -6 -4 -11 -10 -11 -5 0 -47 -27 -92 -60 -45 -33 -86 -60 -90 -60 -5
0 -6 -4 -3 -10 3 -5 1 -10 -6 -10 -10 0 -36 -20 -138 -105 -61 -51 -246 -239
-313 -316 -102 -119 -108 -127 -153 -189 -21 -30 -42 -57 -45 -60 -3 -3 -20
-27 -38 -55 -17 -27 -36 -55 -42 -62 -5 -7 -10 -16 -10 -22 0 -5 -4 -11 -8
-13 -4 -1 -29 -41 -55 -88 -27 -47 -52 -92 -57 -100 -30 -49 -151 -312 -155
-335 -1 -10 -18 -55 -35 -90 -7 -17 -21 -58 -25 -75 -1 -3 -11 -36 -24 -75
-12 -38 -24 -77 -26 -85 -7 -26 -27 -104 -30 -120 -2 -8 -4 -15 -5 -15 -1 0
-3 -16 -6 -35 -2 -19 -7 -42 -10 -50 -4 -8 -8 -28 -10 -44 -2 -16 -7 -41 -9
-55 -3 -14 -8 -46 -11 -71 -3 -25 -7 -55 -9 -66 -19 -92 -27 -554 -12 -689 4
-33 9 -82 12 -110 3 -27 7 -61 10 -75 2 -14 7 -38 10 -55 4 -26 24 -123 41
-205 3 -14 10 -43 16 -65 6 -22 11 -44 13 -50 1 -5 5 -17 8 -25 3 -8 16 -49
28 -90 13 -41 23 -77 24 -80 20 -67 122 -302 178 -410 33 -63 65 -125 71 -137
6 -13 15 -23 19 -23 5 0 5 -4 2 -10 -3 -5 -2 -10 3 -10 5 0 15 -14 22 -30 7
-17 17 -30 22 -30 5 0 7 -4 4 -8 -3 -5 4 -18 14 -30 11 -12 20 -23 20 -26 0
-3 28 -45 63 -93 60 -85 72 -101 109 -144 9 -11 31 -39 50 -61 39 -49 131
-149 208 -225 47 -48 80 -77 184 -166 11 -10 33 -29 48 -43 15 -13 32 -24 37
-24 5 0 11 -3 13 -8 5 -11 127 -102 137 -102 5 0 11 -4 13 -8 2 -7 51 -39 218
-142 69 -42 307 -157 395 -190 11 -4 31 -12 45 -18 14 -6 54 -21 90 -33 36
-12 71 -27 78 -32 6 -5 12 -7 12 -4 0 3 30 -3 68 -14 76 -23 177 -49 207 -53
11 -2 31 -8 45 -14 14 -5 28 -8 32 -5 4 2 25 0 45 -6 21 -5 61 -13 88 -18 64
-10 890 -10 970 1 84 11 100 14 100 16 0 2 9 4 20 6 61 9 353 82 370 92 6 4
15 7 20 8 26 5 137 48 260 100 50 22 92 39 95 39 6 1 189 95 212 110 9 5 37
21 62 34 25 14 46 28 46 33 0 4 5 8 11 8 11 0 199 122 231 150 9 8 23 20 30
25 12 9 96 76 125 100 44 36 236 215 230 215 -2 0 27 31 65 70 37 38 68 72 68
75 0 4 12 20 28 36 54 60 62 69 56 69 -3 0 4 9 17 20 13 10 20 19 16 20 -4 0
5 13 20 28 15 16 29 35 31 43 2 8 10 18 18 22 8 4 14 13 14 18 0 6 6 17 13 24
29 33 37 45 32 45 -3 0 5 15 19 33 15 19 26 39 26 45 0 7 4 12 9 12 5 0 11 8
14 18 6 17 38 73 47 82 20 18 202 414 215 465 1 6 5 17 8 25 23 57 92 291 101
343 3 15 7 35 10 45 9 29 40 201 51 282 26 197 27 657 0 811 -2 13 -6 42 -9
64 -9 65 -16 108 -23 135 -9 37 -12 52 -17 85 -10 63 -82 316 -106 370 -10 25
-22 57 -26 70 -14 57 -159 369 -186 403 -6 6 -7 12 -2 12 5 0 5 4 -1 8 -12 9
-44 61 -52 85 -3 9 -9 17 -14 17 -5 0 -9 5 -9 10 0 12 -52 94 -62 98 -5 2 -8
8 -8 14 0 11 -51 81 -62 86 -5 2 -8 8 -8 14 0 6 -10 22 -22 37 -13 15 -34 43
-48 61 -14 19 -35 45 -47 58 -13 12 -23 25 -23 28 0 21 -335 352 -428 421 -44
33 -70 54 -86 68 -6 6 -33 26 -61 45 -27 19 -51 38 -53 43 -2 4 -10 7 -18 7
-8 0 -14 4 -14 9 0 5 -9 13 -20 16 -11 3 -26 12 -32 19 -7 6 -56 36 -108 66
-52 30 -96 58 -98 62 -2 5 -12 8 -22 8 -9 0 -23 6 -29 14 -7 8 -24 17 -38 21
-15 3 -39 15 -55 26 -15 11 -28 17 -28 13 0 -3 -6 -2 -12 4 -44 35 -458 183
-583 207 -37 8 -59 13 -62 15 -4 3 -13 5 -66 14 -27 4 -59 9 -70 12 -86 17
-104 20 -197 29 -36 4 -78 9 -95 11 -33 6 -452 13 -457 9z"/>
</g>
</svg>
