<svg width="36" height="36" viewBox="0 0 36 36" fill="none" xmlns="http://www.w3.org/2000/svg">
<g id="Group">
<g id="Group_2">
<path id="Vector" d="M18 36C27.9411 36 36 27.9411 36 18C36 8.05887 27.9411 0 18 0C8.05887 0 0 8.05887 0 18C0 27.9411 8.05887 36 18 36Z" fill="url(#paint0_linear_564_22015)"/>
<g id="Group_3">
<g id="Group_4">
<path id="Vector_2" d="M10.7172 18.041H15.0205C15.2562 18.041 15.5049 17.8902 15.6172 17.7216L21.142 9.43438H25.0615C25.458 9.43438 25.7787 9.11357 25.7787 8.71719C25.7787 8.3208 25.4579 8 25.0615 8H20.7582C20.6078 8.03674 20.343 8.04522 20.1615 8.31943L14.6367 16.6067H10.7172C10.3207 16.6067 10 16.9275 10 17.3238C10 17.7202 10.3208 18.041 10.7172 18.041ZM23.0303 12.6226L20.1615 16.9259C20.0151 17.1459 20.0011 17.4288 20.1258 17.662C20.2505 17.8953 20.4935 18.041 20.7583 18.041H21.4755V26.6475H25.7788V18.041H26.496C26.7607 18.041 27.0038 17.8954 27.1284 17.6621C27.2531 17.4289 27.2391 17.1459 27.0928 16.926L24.2238 12.6227C23.9577 12.2234 23.2965 12.2234 23.0303 12.6226ZM16.4549 19.4754C16.0585 19.4754 15.7377 19.7962 15.7377 20.1926V26.6475H20.041V20.1926C20.041 19.7961 19.7202 19.4754 19.3238 19.4754H16.4549ZM14.3033 23.0615C14.3033 22.665 13.9825 22.3442 13.5861 22.3442H10.7173C10.3208 22.3442 10.0001 22.665 10.0001 23.0615V26.6476H14.3034L14.3033 23.0615Z" fill="url(#paint1_linear_564_22015)"/>
</g>
</g>
</g>
</g>
<defs>
<linearGradient id="paint0_linear_564_22015" x1="18" y1="0" x2="18" y2="36" gradientUnits="userSpaceOnUse">
<stop stop-color="#F8E5FF"/>
<stop offset="1" stop-color="#D792F8"/>
</linearGradient>
<linearGradient id="paint1_linear_564_22015" x1="16.2077" y1="6.56559" x2="16.2077" y2="31.6509" gradientUnits="userSpaceOnUse">
<stop stop-color="#B413C2"/>
<stop offset="1" stop-color="#7E18FF"/>
</linearGradient>
</defs>
</svg>
