<svg xmlns="http://www.w3.org/2000/svg" width="21" height="21" viewBox="0 0 21 21" fill="none">
  <path fill-rule="evenodd" clip-rule="evenodd"
    d="M8.5 4.13428C6.29086 4.13428 4.5 5.92514 4.5 8.13428C4.5 10.3434 6.29086 12.1343 8.5 12.1343C10.7091 12.1343 12.5 10.3434 12.5 8.13428C12.5 5.92514 10.7091 4.13428 8.5 4.13428ZM2.5 8.13428C2.5 4.82057 5.18629 2.13428 8.5 2.13428C11.8137 2.13428 14.5 4.82057 14.5 8.13428C14.5 9.43011 14.0892 10.63 13.3907 11.6108L18.2071 16.4272C18.5976 16.8177 18.5976 17.4509 18.2071 17.8414C17.8166 18.2319 17.1834 18.2319 16.7929 17.8414L11.9765 13.025C10.9957 13.7235 9.79583 14.1343 8.5 14.1343C5.18629 14.1343 2.5 11.448 2.5 8.13428Z"
    fill="white" />
</svg>