<svg width="26" height="26" viewBox="0 0 26 26" fill="none" xmlns="http://www.w3.org/2000/svg">
  <path fill-rule="evenodd" clip-rule="evenodd" d="M13 4.0625C8.06396 4.0625 4.0625 8.06396 4.0625 13C4.0625 14.9613 4.69424 16.775 5.76533 18.2488C7.93822 17.1436 10.3974 16.5208 13 16.5208C15.6026 16.5208 18.0618 17.1436 20.2347 18.2488C21.3058 16.775 21.9375 14.9613 21.9375 13C21.9375 8.06396 17.936 4.0625 13 4.0625ZM21.0821 19.8009C22.6299 17.9634 23.5625 15.5906 23.5625 13C23.5625 7.16649 18.8335 2.4375 13 2.4375C7.16649 2.4375 2.4375 7.16649 2.4375 13C2.4375 15.5906 3.37014 17.9634 4.91798 19.8009C4.92433 19.8087 4.93081 19.8164 4.93742 19.8239C6.87492 22.1108 9.76793 23.5625 13 23.5625C16.232 23.5625 19.125 22.1108 21.0625 19.824C21.0692 19.8164 21.0757 19.8087 21.0821 19.8009ZM19.1211 19.5124C17.2651 18.6361 15.1907 18.1458 13 18.1458C10.8093 18.1458 8.73491 18.6361 6.87892 19.5124C8.47822 21.0162 10.6315 21.9375 13 21.9375C15.3685 21.9375 17.5218 21.0162 19.1211 19.5124ZM13 8.39583C11.6538 8.39583 10.5625 9.48714 10.5625 10.8333C10.5625 12.1795 11.6538 13.2708 13 13.2708C14.3462 13.2708 15.4375 12.1795 15.4375 10.8333C15.4375 9.48714 14.3462 8.39583 13 8.39583ZM8.9375 10.8333C8.9375 8.58968 10.7563 6.77083 13 6.77083C15.2437 6.77083 17.0625 8.58968 17.0625 10.8333C17.0625 13.077 15.2437 14.8958 13 14.8958C10.7563 14.8958 8.9375 13.077 8.9375 10.8333Z" fill="#BFBFBF"/>
  </svg>
  