<svg xmlns="http://www.w3.org/2000/svg" width="21" height="21" viewBox="0 0 21 21" fill="none">
  <path fill-rule="evenodd" clip-rule="evenodd"
    d="M4.79289 4.42717C5.18342 4.03665 5.81658 4.03665 6.20711 4.42717L10.5 8.72006L14.7929 4.42717C15.1834 4.03665 15.8166 4.03665 16.2071 4.42717C16.5976 4.81769 16.5976 5.45086 16.2071 5.84138L11.9142 10.1343L16.2071 14.4272C16.5976 14.8177 16.5976 15.4509 16.2071 15.8414C15.8166 16.2319 15.1834 16.2319 14.7929 15.8414L10.5 11.5485L6.20711 15.8414C5.81658 16.2319 5.18342 16.2319 4.79289 15.8414C4.40237 15.4509 4.40237 14.8177 4.79289 14.4272L9.08579 10.1343L4.79289 5.84138C4.40237 5.45086 4.40237 4.81769 4.79289 4.42717Z"
    fill="#262626" />
</svg>