<svg width="26" height="26" viewBox="0 0 26 26" fill="none" xmlns="http://www.w3.org/2000/svg">
  <path d="M22.8861 8.73026L14.349 2.60115C13.542 2.02195 12.4582 2.02195 11.6512 2.60115L3.11366 8.73026C2.30668 9.30946 1.97132 10.3284 2.27962 11.2658L5.54039 21.1828C5.84869 22.1201 6.72573 22.75 7.7231 22.75H18.2757C19.2731 22.75 20.1506 22.1201 20.4584 21.1828L23.7192 11.2658C24.0275 10.3284 23.6931 9.30946 22.8861 8.73026ZM19.0126 20.7187C18.9087 21.0348 18.613 21.2473 18.2762 21.2473H7.72358C7.38726 21.2473 7.09105 21.0348 6.98716 20.7187L3.72638 10.8012C3.62249 10.4851 3.73556 10.1413 4.00761 9.94596L12.5447 3.81685C12.8167 3.62155 13.183 3.62155 13.4551 3.81685L21.9921 9.94596C22.2642 10.1413 22.3773 10.4851 22.2734 10.8012L19.0126 20.7187Z" fill="#262626"/>
  <path d="M19.9264 10.4009L19.1489 10.5733L13.6794 6.64641V5.9679C13.6794 5.59879 13.3754 5.29845 13.0019 5.29845C12.6284 5.29845 12.3244 5.59879 12.3244 5.9679V6.64641L6.85483 10.5733L6.11067 10.4081C5.74632 10.3274 5.38294 10.5547 5.30128 10.9147C5.26165 11.089 5.29306 11.2686 5.38971 11.4194C5.48635 11.5703 5.63712 11.6754 5.81349 11.7145L6.47985 11.8626L8.55142 18.1621L8.21752 18.6697C8.11894 18.8196 8.08511 18.9987 8.12281 19.1735C8.1605 19.3487 8.26487 19.4986 8.41612 19.5956C8.5263 19.6667 8.65387 19.704 8.7853 19.704C9.0158 19.704 9.22793 19.5898 9.35357 19.3993L9.66331 18.928H16.3405L16.6299 19.3678C16.7555 19.5588 16.9677 19.6725 17.1982 19.6725C17.3296 19.6725 17.4572 19.6347 17.5669 19.5645C17.7186 19.4671 17.823 19.3172 17.8607 19.142C17.8984 18.9672 17.8645 18.7881 17.766 18.6382L17.4524 18.1617L19.5239 11.8621L20.2236 11.7069C20.4 11.6677 20.5508 11.5627 20.6474 11.4118C20.7441 11.2609 20.7755 11.0814 20.7358 10.9071C20.6542 10.5471 20.2908 10.3203 19.9264 10.4009ZM13.6794 8.30141L17.3881 10.9639L13.6794 11.7866V8.30141ZM12.3244 11.7866L8.61569 10.9639L12.3244 8.30141V11.7866ZM11.903 13.0654L9.50143 16.7172L8.01698 12.203L11.903 13.0654ZM13.0019 13.8513L15.46 17.5891H10.5437L13.0019 13.8513ZM14.1007 13.0654L17.9868 12.203L16.5023 16.7172L14.1007 13.0654Z" fill="#262626"/>
  </svg>
  