<svg xmlns="http://www.w3.org/2000/svg" xmlns:xlink="http://www.w3.org/1999/xlink" width="30" height="30" viewBox="0 0 30 30">
  <defs>
    <linearGradient id="linear-gradient" x1="0.5" x2="0.5" y2="1" gradientUnits="objectBoundingBox">
      <stop offset="0" stop-color="#ce4d7f"/>
      <stop offset="1" stop-color="#792143"/>
    </linearGradient>
    <linearGradient id="linear-gradient-2" x1="0.5" x2="0.5" y2="1" gradientUnits="objectBoundingBox">
      <stop offset="0" stop-color="#ffb5c6"/>
      <stop offset="1" stop-color="#ff6a87"/>
    </linearGradient>
    <clipPath id="clip-path">
      <rect id="사각형_42" data-name="사각형 42" width="18.484" height="12.939" transform="translate(0.667 0.417)" fill="url(#linear-gradient)"/>
    </clipPath>
  </defs>
  <g id="그룹_283" data-name="그룹 283" transform="translate(-29 -402)">
    <circle id="타원_12" data-name="타원 12" cx="15" cy="15" r="15" transform="translate(29 402)" fill="url(#linear-gradient-2)"/>
    <g id="그룹_53" data-name="그룹 53" transform="translate(34.333 410.583)" clip-path="url(#clip-path)">
      <path id="패스_114" data-name="패스 114" d="M17.252.417a2.027,2.027,0,0,0-1.9,2.131,2.3,2.3,0,0,0,.374,1.268L13.921,6.549a1.7,1.7,0,0,0-.6-.111,1.822,1.822,0,0,0-1.46.77L8.709,5.763c0-.059.007-.118.007-.178a2.027,2.027,0,0,0-1.9-2.131,2.027,2.027,0,0,0-1.9,2.131,2.312,2.312,0,0,0,.295,1.138L3.3,9.26a1.712,1.712,0,0,0-.736-.166,2.027,2.027,0,0,0-1.9,2.131,2.027,2.027,0,0,0,1.9,2.131,2.027,2.027,0,0,0,1.9-2.131,2.312,2.312,0,0,0-.295-1.138L6.082,7.549a1.713,1.713,0,0,0,.736.167,1.822,1.822,0,0,0,1.46-.77l3.147,1.445c0,.059-.007.118-.007.178a2.027,2.027,0,0,0,1.9,2.131,2.027,2.027,0,0,0,1.9-2.131A2.3,2.3,0,0,0,14.841,7.3l1.807-2.734a1.7,1.7,0,0,0,.6.111,2.027,2.027,0,0,0,1.9-2.131A2.027,2.027,0,0,0,17.252.417Zm-.761,2.131a.765.765,0,1,1,1.521,0,.765.765,0,1,1-1.521,0ZM13.317,7.715a.812.812,0,0,1,.76.854.765.765,0,1,1-1.521,0A.812.812,0,0,1,13.317,7.715ZM6.058,5.584a.812.812,0,0,1,.761-.854.812.812,0,0,1,.76.854.812.812,0,0,1-.76.854A.812.812,0,0,1,6.058,5.584Zm-2.732,5.64a.812.812,0,0,1-.76.854.859.859,0,0,1,0-1.707A.812.812,0,0,1,3.325,11.224Z" transform="translate(0 0)" fill="url(#linear-gradient)"/>
    </g>
  </g>
</svg>
