<svg width="36" height="36" viewBox="0 0 36 36" fill="none" xmlns="http://www.w3.org/2000/svg">
<g id="icon-pie">
<g id="Group">
<path id="Vector" d="M18 36C27.9411 36 36 27.9411 36 18C36 8.05887 27.9411 0 18 0C8.05887 0 0 8.05887 0 18C0 27.9411 8.05887 36 18 36Z" fill="white" fill-opacity="0.3"/>
</g>
<g id="Group_2">
<g id="Group_3">
<path id="Vector_2" d="M26.1116 18.2417H17.9926V10.1227C17.9926 9.77748 17.7132 9.4982 17.3681 9.4982C12.2022 9.4982 8 13.7004 8 18.8663C8 24.0322 12.2022 28.2344 17.368 28.2344C22.5339 28.2344 26.7361 24.0322 26.7361 18.8663C26.7362 18.5211 26.4568 18.2417 26.1116 18.2417ZM19.8662 7C19.521 7 19.2417 7.27935 19.2417 7.62452V16.3681C19.2417 16.7133 19.5211 16.9926 19.8662 16.9926H28.6098C28.955 16.9926 29.2343 16.7133 29.2343 16.3681C29.2343 11.2022 25.0321 7 19.8662 7Z" fill="url(#paint0_linear_564_21743)"/>
</g>
</g>
</g>
<defs>
<linearGradient id="paint0_linear_564_21743" x1="18.6172" y1="7" x2="18.6172" y2="28.2344" gradientUnits="userSpaceOnUse">
<stop stop-color="white"/>
<stop offset="1" stop-color="white" stop-opacity="0.6"/>
</linearGradient>
</defs>
</svg>
