<svg xmlns="http://www.w3.org/2000/svg" xmlns:xlink="http://www.w3.org/1999/xlink" width="26" height="26" viewBox="0 0 26 26">
  <defs>
    <clipPath id="clip-path">
      <rect id="사각형_5" data-name="사각형 5" width="26" height="26" transform="translate(0.167 -6.583)" fill="#fff"/>
    </clipPath>
  </defs>
  <g id="그룹_3" data-name="그룹 3" transform="translate(-0.167 6.583)" clip-path="url(#clip-path)">
    <path id="패스_3" data-name="패스 3" d="M19.608.417a2.376,2.376,0,0,0-2.225,2.5A2.69,2.69,0,0,0,17.821,4.4L15.7,7.606a1.992,1.992,0,0,0-.709-.131,2.136,2.136,0,0,0-1.711.9L9.594,6.684c.005-.069.008-.139.008-.209a2.376,2.376,0,0,0-2.225-2.5,2.376,2.376,0,0,0-2.225,2.5A2.71,2.71,0,0,0,5.5,7.809L3.254,10.783a2.007,2.007,0,0,0-.863-.2,2.376,2.376,0,0,0-2.225,2.5,2.376,2.376,0,0,0,2.225,2.5,2.376,2.376,0,0,0,2.225-2.5,2.709,2.709,0,0,0-.345-1.334L6.515,8.778a2.008,2.008,0,0,0,.863.2,2.136,2.136,0,0,0,1.711-.9l3.689,1.694c-.005.069-.008.139-.008.209a2.376,2.376,0,0,0,2.225,2.5,2.376,2.376,0,0,0,2.225-2.5,2.694,2.694,0,0,0-.438-1.486l2.118-3.2a1.992,1.992,0,0,0,.709.131,2.376,2.376,0,0,0,2.225-2.5A2.376,2.376,0,0,0,19.608.417Zm-.892,2.5a.9.9,0,1,1,1.783,0,.9.9,0,1,1-1.783,0ZM14.995,8.972a.952.952,0,0,1,.891,1,.9.9,0,1,1-1.783,0A.952.952,0,0,1,14.995,8.972Zm-8.509-2.5a.952.952,0,0,1,.891-1,.952.952,0,0,1,.891,1,.952.952,0,0,1-.891,1A.952.952,0,0,1,6.486,6.474Zm-3.2,6.611a.952.952,0,0,1-.891,1,1.007,1.007,0,0,1,0-2A.952.952,0,0,1,3.283,13.086Z" transform="translate(2 -2)" fill="#262626"/>
  </g>
</svg>
