<svg xmlns="http://www.w3.org/2000/svg" width="33" height="32" viewBox="0 0 33 32" fill="none">
  <path fill-rule="evenodd" clip-rule="evenodd"
    d="M16.5 28.7999C23.5692 28.7999 29.2999 23.0692 29.2999 16C29.2999 8.93071 23.5692 3.19995 16.5 3.19995C9.43071 3.19995 3.69995 8.93071 3.69995 16C3.69995 23.0692 9.43071 28.7999 16.5 28.7999ZM22.4313 13.9313C23.0562 13.3065 23.0562 12.2934 22.4313 11.6686C21.8065 11.0437 20.7934 11.0437 20.1686 11.6686L14.9 16.9372L12.8313 14.8686C12.2065 14.2437 11.1934 14.2437 10.5686 14.8686C9.94374 15.4934 9.94374 16.5065 10.5686 17.1313L13.7686 20.3313C14.3934 20.9562 15.4065 20.9562 16.0313 20.3313L22.4313 13.9313Z"
    fill="#52C41A" />
</svg>