<svg width="36" height="36" viewBox="0 0 36 36" fill="none" xmlns="http://www.w3.org/2000/svg">
<g id="Group">
<g id="Group_2">
<path id="Vector" d="M18 36C27.9411 36 36 27.9411 36 18C36 8.05887 27.9411 0 18 0C8.05887 0 0 8.05887 0 18C0 27.9411 8.05887 36 18 36Z" fill="url(#paint0_linear_564_22005)"/>
<g id="Union">
<path d="M16.2328 16.7782L17.0946 18.8945H15.371L16.2328 16.7782Z" fill="url(#paint1_linear_564_22005)"/>
<path fill-rule="evenodd" clip-rule="evenodd" d="M27.5402 20.7701H29.0803C29.59 20.7701 30 21.1801 30 21.6898C30 22.1994 29.59 22.6094 29.0803 22.6094H27.5402V24.1496C27.5402 26.0222 26.0222 27.5402 24.1496 27.5402H22.6094V29.0803C22.6094 29.59 22.1994 30 21.6898 30C21.1801 30 20.7701 29.59 20.7701 29.0803V27.5402H15.2299V29.0803C15.2299 29.59 14.8199 30 14.3102 30C13.8006 30 13.3906 29.59 13.3906 29.0803V27.5402H11.8504C9.97784 27.5402 8.45983 26.0222 8.45983 24.1496V22.6094H6.91967C6.40997 22.6094 6 22.1994 6 21.6898C6 21.1801 6.40997 20.7701 6.91967 20.7701H8.45983V15.2299H6.91967C6.40997 15.2299 6 14.8199 6 14.3102C6 13.8006 6.40997 13.3906 6.91967 13.3906H8.45983V11.8504C8.45983 9.97784 9.97784 8.45983 11.8504 8.45983H13.3906V6.91967C13.3906 6.40997 13.8006 6 14.3102 6C14.8199 6 15.2299 6.40997 15.2299 6.91967V8.45983H20.7701V6.91967C20.7701 6.40997 21.1801 6 21.6898 6C22.1994 6 22.6094 6.40997 22.6094 6.91967V8.45983H24.1496C26.0222 8.45983 27.5402 9.97784 27.5402 11.8504V13.3906H29.0803C29.59 13.3906 30 13.8006 30 14.3102C30 14.8199 29.59 15.2299 29.0803 15.2299H27.5402V20.7701ZM19.1856 22.3767C19.4848 22.3767 19.7507 22.2548 19.9169 21.9889C20.0942 21.723 20.1053 21.4238 19.9945 21.1468L17.2133 14.5208C17.1579 14.3546 17.0582 14.2105 16.903 14.0997C16.7479 13.9889 16.5706 13.9446 16.3934 13.9446C16.2161 13.9446 16.0499 13.9889 15.8947 14.0997C15.7396 14.1994 15.6399 14.3435 15.5734 14.5097L12.8033 21.1136C12.6814 21.3906 12.6925 21.6898 12.8587 21.9557C13.0139 22.2216 13.2798 22.3657 13.59 22.3657C13.7562 22.3657 13.9114 22.3102 14.0443 22.2327C14.2105 22.133 14.3213 21.9889 14.3989 21.8227L14.8753 20.6704H17.9114L18.3767 21.8227C18.4432 21.9889 18.554 22.1219 18.6981 22.2216L18.7091 22.2438H18.7202C18.8643 22.3324 19.0194 22.3767 19.1856 22.3767ZM22.4321 22.1108C22.5983 21.9446 22.687 21.723 22.687 21.4903H22.6759V14.8199C22.6759 14.5873 22.5983 14.3657 22.4211 14.1994C22.2548 14.0222 22.0332 13.9446 21.8006 13.9446C21.5679 13.9446 21.3463 14.0332 21.1801 14.1994C21.0028 14.3657 20.9252 14.5983 20.9252 14.831V21.5014C20.9252 21.7341 21.0139 21.9557 21.1801 22.1219C21.3463 22.2881 21.5568 22.3767 21.8006 22.3767C22.0443 22.3767 22.2659 22.2881 22.4321 22.1108Z" fill="url(#paint2_linear_564_22005)"/>
</g>
</g>
</g>
<defs>
<linearGradient id="paint0_linear_564_22005" x1="18" y1="0" x2="18" y2="36" gradientUnits="userSpaceOnUse">
<stop stop-color="#E5FFEF"/>
<stop offset="1" stop-color="#92F8DF"/>
</linearGradient>
<linearGradient id="paint1_linear_564_22005" x1="18" y1="6" x2="18" y2="30" gradientUnits="userSpaceOnUse">
<stop stop-color="#09DDAA"/>
<stop offset="1" stop-color="#03928A"/>
</linearGradient>
<linearGradient id="paint2_linear_564_22005" x1="18" y1="6" x2="18" y2="30" gradientUnits="userSpaceOnUse">
<stop stop-color="#09DDAA"/>
<stop offset="1" stop-color="#03928A"/>
</linearGradient>
</defs>
</svg>
