<svg width="37" height="36" viewBox="0 0 37 36" fill="none" xmlns="http://www.w3.org/2000/svg">
<path d="M18.5 36C28.4411 36 36.5 27.9411 36.5 18C36.5 8.05887 28.4411 0 18.5 0C8.55887 0 0.5 8.05887 0.5 18C0.5 27.9411 8.55887 36 18.5 36Z" fill="white" fill-opacity="0.3"/>
<g clip-path="url(#clip0_564_21754)">
<path fill-rule="evenodd" clip-rule="evenodd" d="M27.44 20.33H28.83C29.29 20.33 29.66 20.7 29.66 21.16C29.66 21.62 29.29 21.99 28.83 21.99H27.44V23.38C27.44 25.07 26.07 26.44 24.38 26.44H22.99V27.83C22.99 28.29 22.62 28.66 22.16 28.66C21.7 28.66 21.33 28.29 21.33 27.83V26.44H16.33V27.83C16.33 28.29 15.96 28.66 15.5 28.66C15.04 28.66 14.67 28.29 14.67 27.83V26.44H13.28C11.59 26.44 10.22 25.07 10.22 23.38V21.99H8.83C8.37 21.99 8 21.62 8 21.16C8 20.7 8.37 20.33 8.83 20.33H10.22V15.33H8.83C8.37 15.33 8 14.96 8 14.5C8 14.04 8.37 13.67 8.83 13.67H10.22V12.28C10.22 10.59 11.59 9.22 13.28 9.22H14.67V7.83C14.67 7.37 15.04 7 15.5 7C15.96 7 16.33 7.37 16.33 7.83V9.22H21.33V7.83C21.33 7.37 21.7 7 22.16 7C22.62 7 22.99 7.37 22.99 7.83V9.22H24.38C26.07 9.22 27.44 10.59 27.44 12.28V13.67H28.83C29.29 13.67 29.66 14.04 29.66 14.5C29.66 14.96 29.29 15.33 28.83 15.33H27.44V20.33ZM19.9 21.78C20.17 21.78 20.41 21.67 20.56 21.43C20.72 21.19 20.73 20.92 20.63 20.67L18.12 14.69C18.07 14.54 17.98 14.41 17.84 14.31C17.7 14.21 17.54 14.17 17.38 14.17C17.22 14.17 17.07 14.21 16.93 14.31C16.79 14.4 16.7 14.53 16.64 14.68L14.14 20.64C14.03 20.89 14.04 21.16 14.19 21.4C14.33 21.64 14.57 21.77 14.85 21.77C15 21.77 15.14 21.72 15.26 21.65C15.41 21.56 15.51 21.43 15.58 21.28L16.01 20.24H18.75L19.17 21.28C19.23 21.43 19.33 21.55 19.46 21.64L19.47 21.66H19.48C19.61 21.74 19.75 21.78 19.9 21.78ZM22.83 21.54C22.98 21.39 23.06 21.19 23.06 20.98H23.05V14.96C23.05 14.75 22.98 14.55 22.82 14.4C22.67 14.24 22.47 14.17 22.26 14.17C22.05 14.17 21.85 14.25 21.7 14.4C21.54 14.55 21.47 14.76 21.47 14.97V20.99C21.47 21.2 21.55 21.4 21.7 21.55C21.85 21.7 22.04 21.78 22.26 21.78C22.48 21.78 22.68 21.7 22.83 21.54ZM17.3801 16.88L18.1701 18.82H16.5901L17.3801 16.88Z" fill="url(#paint0_linear_564_21754)"/>
</g>
<defs>
<linearGradient id="paint0_linear_564_21754" x1="18.83" y1="7" x2="18.83" y2="28.66" gradientUnits="userSpaceOnUse">
<stop stop-color="white"/>
<stop offset="1" stop-color="white" stop-opacity="0.6"/>
</linearGradient>
<clipPath id="clip0_564_21754">
<rect width="21.67" height="21.67" fill="white" transform="translate(8 7)"/>
</clipPath>
</defs>
</svg>
