<svg width="26" height="26" viewBox="0 0 26 26" fill="none" xmlns="http://www.w3.org/2000/svg">
  <path fill-rule="evenodd" clip-rule="evenodd"
    d="M12.4255 2.67548C12.7428 2.35817 13.2572 2.35817 13.5745 2.67548L23.3245 12.4255C23.6418 12.7428 23.6418 13.2572 23.3245 13.5745C23.0072 13.8918 22.4928 13.8918 22.1755 13.5745L21.3958 12.7949V21.6667C21.3958 22.7137 20.547 23.5625 19.5 23.5625H6.5C5.45296 23.5625 4.60417 22.7137 4.60417 21.6667V12.7949L3.82452 13.5745C3.50722 13.8918 2.99278 13.8918 2.67548 13.5745C2.35817 13.2572 2.35817 12.7428 2.67548 12.4255L12.4255 2.67548ZM6.22917 11.1699V21.6667C6.22917 21.8162 6.35042 21.9375 6.5 21.9375H9.75C9.89958 21.9375 10.0208 21.8162 10.0208 21.6667V17.3333C10.0208 16.2863 10.8696 15.4375 11.9167 15.4375H14.0833C15.1304 15.4375 15.9792 16.2863 15.9792 17.3333V21.6667C15.9792 21.8162 16.1004 21.9375 16.25 21.9375H19.5C19.6496 21.9375 19.7708 21.8162 19.7708 21.6667V11.1699L13 4.39905L6.22917 11.1699ZM14.3734 21.9375C14.3607 21.849 14.3542 21.7586 14.3542 21.6667V17.3333C14.3542 17.1838 14.2329 17.0625 14.0833 17.0625H11.9167C11.7671 17.0625 11.6458 17.1838 11.6458 17.3333V21.6667C11.6458 21.7586 11.6393 21.849 11.6266 21.9375H14.3734Z"
    fill="#262626" />
</svg>