<svg xmlns="http://www.w3.org/2000/svg" width="26" height="26" viewBox="0 0 26 26" fill="none">
  <path fill-rule="evenodd" clip-rule="evenodd"
    d="M9.744 16.4582L10.1714 15.4134H12.9079L13.3248 16.4489C13.3841 16.5969 13.4813 16.7206 13.6132 16.8119L13.6251 16.8201L13.6376 16.8273C13.767 16.9012 13.9095 16.9423 14.0608 16.9423C14.3308 16.9423 14.5712 16.8315 14.7232 16.594C14.8763 16.3581 14.8889 16.0927 14.7889 15.8382L12.2817 9.85478C12.2254 9.70646 12.1353 9.57071 11.9989 9.4733C11.8595 9.37366 11.6985 9.33343 11.5363 9.33343C11.3754 9.33343 11.2189 9.37595 11.0826 9.4733C10.9488 9.56886 10.8565 9.70146 10.7944 9.84656L8.29676 15.8106C8.18476 16.0654 8.19709 16.3325 8.34697 16.5723C8.49597 16.8107 8.7295 16.9423 9.01186 16.9423C9.16023 16.9423 9.29853 16.8995 9.42205 16.8245C9.56998 16.7386 9.67706 16.6112 9.744 16.4582ZM12.3318 13.9823H10.7569L11.5506 12.042L12.3318 13.9823Z"
    fill="#BFBFBF" />
  <path
    d="M15.8621 16.7114C16.016 16.8653 16.2116 16.9423 16.4267 16.9423C16.6412 16.9423 16.8418 16.8693 16.9953 16.7073C17.1465 16.554 17.2222 16.36 17.2222 16.1468V10.129C17.2222 9.91632 17.1505 9.71726 16.9914 9.56432C16.8384 9.40519 16.6393 9.33343 16.4267 9.33343C16.2134 9.33343 16.0194 9.40912 15.8661 9.56041C15.7041 9.71386 15.6311 9.91451 15.6311 10.129V16.1468C15.6311 16.3619 15.7081 16.5574 15.8621 16.7114Z"
    fill="#BFBFBF" />
  <path fill-rule="evenodd" clip-rule="evenodd"
    d="M10.5 3.00008C10.5 2.53984 10.1269 2.16675 9.66669 2.16675C9.20645 2.16675 8.83335 2.53984 8.83335 3.00008V4.38897H7.44446C5.75693 4.38897 4.38891 5.75699 4.38891 7.44453V8.83342H3.00002C2.53978 8.83342 2.16669 9.20651 2.16669 9.66675C2.16669 10.127 2.53978 10.5001 3.00002 10.5001H4.38891V15.5001H3.00002C2.53978 15.5001 2.16669 15.8732 2.16669 16.3334C2.16669 16.7937 2.53978 17.1667 3.00002 17.1667H4.38891V18.5556C4.38891 20.2432 5.75693 21.6112 7.44446 21.6112H8.83335V23.0001C8.83335 23.4603 9.20645 23.8334 9.66669 23.8334C10.1269 23.8334 10.5 23.4603 10.5 23.0001V21.6112H15.5V23.0001C15.5 23.4603 15.8731 23.8334 16.3334 23.8334C16.7936 23.8334 17.1667 23.4603 17.1667 23.0001V21.6112H18.5556C20.2431 21.6112 21.6111 20.2432 21.6111 18.5556V17.1667H23C23.4603 17.1667 23.8334 16.7937 23.8334 16.3334C23.8334 15.8732 23.4603 15.5001 23 15.5001H21.6111V10.5001H23C23.4603 10.5001 23.8334 10.127 23.8334 9.66675C23.8334 9.20651 23.4603 8.83342 23 8.83342H21.6111V7.44453C21.6111 5.75699 20.2431 4.38897 18.5556 4.38897H17.1667V3.00008C17.1667 2.53984 16.7936 2.16675 16.3334 2.16675C15.8731 2.16675 15.5 2.53984 15.5 3.00008V4.38897H10.5V3.00008ZM6.05558 7.44453C6.05558 6.67746 6.6774 6.05564 7.44446 6.05564H18.5556C19.3226 6.05564 19.9445 6.67746 19.9445 7.44453V18.5556C19.9445 19.3227 19.3226 19.9445 18.5556 19.9445H7.44446C6.6774 19.9445 6.05558 19.3227 6.05558 18.5556V7.44453Z"
    fill="#BFBFBF" />
</svg>