<svg xmlns="http://www.w3.org/2000/svg" width="22" height="22" viewBox="0 0 22 22" fill="none">
  <path fill-rule="evenodd" clip-rule="evenodd"
    d="M10.5139 2.26386C10.7823 1.99538 11.2177 1.99538 11.4861 2.26386L19.7361 10.5139C20.0046 10.7823 20.0046 11.2177 19.7361 11.4861C19.4677 11.7546 19.0324 11.7546 18.7639 11.4861L18.1042 10.8264V18.3333C18.1042 19.2193 17.386 19.9375 16.5 19.9375H5.5C4.61404 19.9375 3.89583 19.2193 3.89583 18.3333V10.8264L3.23614 11.4861C2.96765 11.7546 2.53235 11.7546 2.26386 11.4861C1.99538 11.2177 1.99538 10.7823 2.26386 10.5139L10.5139 2.26386ZM5.27083 9.45144V18.3333C5.27083 18.4599 5.37344 18.5625 5.5 18.5625H8.25C8.37657 18.5625 8.47917 18.4599 8.47917 18.3333V14.6667C8.47917 13.7807 9.19738 13.0625 10.0833 13.0625H11.9167C12.8026 13.0625 13.5208 13.7807 13.5208 14.6667V18.3333C13.5208 18.4599 13.6234 18.5625 13.75 18.5625H16.5C16.6266 18.5625 16.7292 18.4599 16.7292 18.3333V9.45144L11 3.72227L5.27083 9.45144ZM12.1621 18.5625C12.1514 18.4877 12.1458 18.4111 12.1458 18.3333V14.6667C12.1458 14.5401 12.0432 14.4375 11.9167 14.4375H10.0833C9.95677 14.4375 9.85417 14.5401 9.85417 14.6667V18.3333C9.85417 18.4111 9.84863 18.4877 9.83792 18.5625H12.1621Z"
    fill="#262626" />
</svg>